<svg width="56" height="56" viewBox="0 0 56 56" fill="none" xmlns="http://www.w3.org/2000/svg">
<g filter="url(#filter0_d_1230_2122)">
<circle cx="28" cy="24" r="24" fill="#FF1100"/>
</g>
<path d="M28.8113 31.7957C28.6572 31.9396 28.2442 32.1411 27.9569 32.2126C27.8282 32.2447 27.6254 32.2614 27.4375 32.2554C27.1648 32.2468 27.0991 32.2308 26.868 32.1169C26.1637 31.7698 25.5246 30.9504 25.2644 30.0608C25.1493 29.6674 25.1503 28.7788 25.2665 28.1614C25.3537 27.698 25.5627 26.8656 25.6679 26.563C25.7046 26.4572 25.7347 26.3504 25.7347 26.3255C25.7347 26.2893 25.2375 26.2777 23.2342 26.2669C21.0432 26.2551 20.7097 26.2463 20.5396 26.1955C19.2273 25.8041 18.6772 24.4049 19.4158 23.3368L19.5665 23.1188L19.4632 22.997C19.3019 22.8067 19.155 22.4763 19.1076 22.1968C19.0034 21.5833 19.2964 20.9112 19.8211 20.5603C19.9119 20.4995 19.9923 20.4451 19.9996 20.4393C20.007 20.4336 19.9868 20.364 19.9548 20.2848C19.7916 19.881 19.8186 19.37 20.0251 18.9523C20.1589 18.6818 20.4476 18.3595 20.6481 18.2569C20.7684 18.1953 20.7676 18.2136 20.6645 17.8545C20.5547 17.4719 20.6174 16.9513 20.8132 16.6204C21.0202 16.2706 21.3636 15.9888 21.7689 15.8359L21.9795 15.7565L25.6813 15.7458C28.0926 15.7388 29.4957 15.7479 29.7062 15.7718C30.4948 15.7718 31.2161 16.2855 31.2161 17.2817V20.2094C31.2161 23.6605 31.2088 24.2475 31.1653 24.281C31.1374 24.3025 30.6248 25.3722 30.0263 26.658L28.9381 28.996V31.6773L28.8113 31.7957Z" fill="white"/>
<path d="M36.9153 23.6498C36.9153 24.1792 36.4862 24.6083 35.9568 24.6083H32.9295C32.4001 24.6083 31.9709 24.1792 31.9709 23.6498V16.7021C31.9709 16.1726 32.4001 15.7435 32.9295 15.7435H35.9568C36.4862 15.7435 36.9153 16.1726 36.9153 16.702V23.6498Z" fill="white"/>
<defs>
<filter id="filter0_d_1230_2122" x="0" y="0" width="56" height="56" filterUnits="userSpaceOnUse" color-interpolation-filters="sRGB">
<feFlood flood-opacity="0" result="BackgroundImageFix"/>
<feColorMatrix in="SourceAlpha" type="matrix" values="0 0 0 0 0 0 0 0 0 0 0 0 0 0 0 0 0 0 127 0" result="hardAlpha"/>
<feOffset dy="4"/>
<feGaussianBlur stdDeviation="2"/>
<feComposite in2="hardAlpha" operator="out"/>
<feColorMatrix type="matrix" values="0 0 0 0 0 0 0 0 0 0 0 0 0 0 0 0 0 0 0.25 0"/>
<feBlend mode="normal" in2="BackgroundImageFix" result="effect1_dropShadow_1230_2122"/>
<feBlend mode="normal" in="SourceGraphic" in2="effect1_dropShadow_1230_2122" result="shape"/>
</filter>
</defs>
</svg>
