<svg width="56" height="56" viewBox="0 0 56 56" fill="none" xmlns="http://www.w3.org/2000/svg">
<g filter="url(#filter0_d_1230_2151)">
<circle cx="28" cy="24" r="24" fill="#999999"/>
</g>
<path d="M30.2126 29.3438V32.9062C30.2126 33.0646 30.152 33.2031 30.0308 33.3219C29.9096 33.4406 29.7682 33.5 29.6066 33.5H25.9706C25.809 33.5 25.6676 33.4406 25.5464 33.3219C25.4252 33.2031 25.3646 33.0646 25.3646 32.9062V29.3438C25.3646 29.1854 25.4252 29.0469 25.5464 28.9281C25.6676 28.8094 25.809 28.75 25.9706 28.75H29.6066C29.7682 28.75 29.9096 28.8094 30.0308 28.9281C30.152 29.0469 30.2126 29.1854 30.2126 29.3438ZM35 20.4375C35 20.9719 34.9217 21.4716 34.7652 21.9367C34.6086 22.4018 34.4319 22.7803 34.2349 23.0723C34.038 23.3642 33.7602 23.6586 33.4017 23.9555C33.0431 24.2523 32.7528 24.4676 32.5306 24.6012C32.3084 24.7348 32.0003 24.9104 31.6064 25.1281C31.1923 25.3557 30.8464 25.6773 30.5686 26.093C30.2909 26.5086 30.152 26.8401 30.152 27.0875C30.152 27.2557 30.0914 27.4165 29.9702 27.5699C29.849 27.7233 29.7076 27.8 29.546 27.8H25.91C25.7585 27.8 25.6298 27.7085 25.5237 27.5254C25.4177 27.3423 25.3646 27.1568 25.3646 26.9688V26.3008C25.3646 25.4794 25.6929 24.7051 26.3494 23.9777C27.0059 23.2504 27.728 22.7135 28.5158 22.3672C29.1117 22.1 29.5359 21.8229 29.7884 21.5359C30.0409 21.249 30.1672 20.8729 30.1672 20.4078C30.1672 19.9922 29.9323 19.626 29.4627 19.3094C28.993 18.9927 28.4502 18.8344 27.8341 18.8344C27.1776 18.8344 26.6322 18.9779 26.1979 19.2648C25.8444 19.5122 25.304 20.0812 24.5768 20.9719C24.4455 21.1302 24.289 21.2094 24.1072 21.2094C23.986 21.2094 23.8597 21.1698 23.7284 21.0906L21.2438 19.2352C21.1125 19.1362 21.0343 19.0125 21.009 18.8641C20.9838 18.7156 21.0115 18.5771 21.0923 18.4484C22.7083 15.8161 25.0515 14.5 28.1219 14.5C28.9299 14.5 29.743 14.6534 30.5611 14.9602C31.3792 15.2669 32.1165 15.6776 32.773 16.1922C33.4295 16.7068 33.9648 17.3376 34.3789 18.0848C34.793 18.8319 35 19.6161 35 20.4375Z" fill="white"/>
<defs>
<filter id="filter0_d_1230_2151" x="0" y="0" width="56" height="56" filterUnits="userSpaceOnUse" color-interpolation-filters="sRGB">
<feFlood flood-opacity="0" result="BackgroundImageFix"/>
<feColorMatrix in="SourceAlpha" type="matrix" values="0 0 0 0 0 0 0 0 0 0 0 0 0 0 0 0 0 0 127 0" result="hardAlpha"/>
<feOffset dy="4"/>
<feGaussianBlur stdDeviation="2"/>
<feComposite in2="hardAlpha" operator="out"/>
<feColorMatrix type="matrix" values="0 0 0 0 0 0 0 0 0 0 0 0 0 0 0 0 0 0 0.25 0"/>
<feBlend mode="normal" in2="BackgroundImageFix" result="effect1_dropShadow_1230_2151"/>
<feBlend mode="normal" in="SourceGraphic" in2="effect1_dropShadow_1230_2151" result="shape"/>
</filter>
</defs>
</svg>
