<svg width="40" height="40" viewBox="0 0 40 40" fill="none" xmlns="http://www.w3.org/2000/svg">
<circle cx="20" cy="20" r="19" stroke="black" stroke-width="2"/>
<path fill-rule="evenodd" clip-rule="evenodd" d="M18.5 12.5001C18.5001 12.3436 18.4514 12.1911 18.3605 12.0638C18.2697 11.9365 18.1413 11.8407 17.9933 11.79C17.8454 11.7392 17.6853 11.736 17.5354 11.7807C17.3855 11.8255 17.2534 11.916 17.1575 12.0396L11.9075 18.7896C11.8051 18.9212 11.7495 19.0833 11.7495 19.2501C11.7495 19.4169 11.8051 19.5789 11.9075 19.7106L17.1575 26.4606C17.2534 26.5841 17.3855 26.6746 17.5354 26.7194C17.6853 26.7641 17.8454 26.7609 17.9933 26.7102C18.1413 26.6594 18.2697 26.5637 18.3605 26.4363C18.4514 26.309 18.5001 26.1565 18.5 26.0001V23.0076C22.5343 23.0916 24.4723 23.8573 25.4458 24.6898C26.3713 25.4811 26.5408 26.4118 26.717 27.3868L26.7628 27.6381C26.7964 27.8178 26.8946 27.9791 27.0389 28.0916C27.1831 28.204 27.3635 28.2599 27.546 28.2486C27.7286 28.2374 27.9008 28.1598 28.0301 28.0305C28.1595 27.9012 28.2372 27.7291 28.2485 27.5466C28.3768 25.4856 28.184 22.4991 26.7283 20.0008C25.3153 17.5761 22.7705 15.7116 18.5 15.5166V12.5001Z" fill="black"/>
</svg>
