<svg width="56" height="56" viewBox="0 0 56 56" fill="none" xmlns="http://www.w3.org/2000/svg">
<g filter="url(#filter0_d_1230_2128)">
<circle cx="28" cy="24" r="24" fill="#12E069"/>
</g>
<path d="M27.1887 16.2043C27.3428 16.0604 27.7558 15.8589 28.043 15.7874C28.1718 15.7553 28.3746 15.7386 28.5625 15.7446C28.8352 15.7532 28.9009 15.7692 29.132 15.8831C29.8363 16.2302 30.4753 17.0496 30.7356 17.9392C30.8507 18.3326 30.8497 19.2212 30.7335 19.8386C30.6463 20.302 30.4373 21.1344 30.3321 21.437C30.2954 21.5428 30.2653 21.6496 30.2653 21.6745C30.2653 21.7107 30.7624 21.7223 32.7658 21.7331C34.9567 21.7449 35.2903 21.7537 35.4604 21.8045C36.7727 22.1959 37.3228 23.5951 36.5842 24.6632L36.4335 24.8812L36.5367 25.003C36.6981 25.1933 36.845 25.5237 36.8924 25.8032C36.9966 26.4167 36.7036 27.0888 36.1789 27.4397C36.088 27.5005 36.0077 27.5549 36.0003 27.5607C35.993 27.5664 36.0132 27.636 36.0452 27.7152C36.2084 28.119 36.1814 28.63 35.9749 29.0477C35.8411 29.3182 35.5524 29.6405 35.3519 29.7431C35.2316 29.8047 35.2323 29.7864 35.3355 30.1455C35.4453 30.5281 35.3826 31.0487 35.1868 31.3796C34.9798 31.7294 34.6364 32.0112 34.2311 32.1641L34.0204 32.2435L30.3187 32.2542C27.9074 32.2612 26.5043 32.2521 26.2938 32.2282C25.5052 32.2282 24.7839 31.7145 24.7839 30.7183V27.7906C24.7839 24.3395 24.7912 23.7525 24.8347 23.719C24.8626 23.6975 25.3751 22.6278 25.9737 21.342L27.0619 19.004V16.3227L27.1887 16.2043Z" fill="white"/>
<path d="M19.0847 24.3502C19.0847 23.8208 19.5138 23.3917 20.0432 23.3917H23.0705C23.5999 23.3917 24.0291 23.8208 24.0291 24.3502V31.2979C24.0291 31.8274 23.5999 32.2565 23.0705 32.2565H20.0432C19.5138 32.2565 19.0847 31.8274 19.0847 31.298V24.3502Z" fill="white"/>
<defs>
<filter id="filter0_d_1230_2128" x="0" y="0" width="56" height="56" filterUnits="userSpaceOnUse" color-interpolation-filters="sRGB">
<feFlood flood-opacity="0" result="BackgroundImageFix"/>
<feColorMatrix in="SourceAlpha" type="matrix" values="0 0 0 0 0 0 0 0 0 0 0 0 0 0 0 0 0 0 127 0" result="hardAlpha"/>
<feOffset dy="4"/>
<feGaussianBlur stdDeviation="2"/>
<feComposite in2="hardAlpha" operator="out"/>
<feColorMatrix type="matrix" values="0 0 0 0 0 0 0 0 0 0 0 0 0 0 0 0 0 0 0.25 0"/>
<feBlend mode="normal" in2="BackgroundImageFix" result="effect1_dropShadow_1230_2128"/>
<feBlend mode="normal" in="SourceGraphic" in2="effect1_dropShadow_1230_2128" result="shape"/>
</filter>
</defs>
</svg>
