<svg width="40" height="40" viewBox="0 0 40 40" fill="none" xmlns="http://www.w3.org/2000/svg">
<circle cx="20" cy="20" r="19" stroke="black" stroke-width="2"/>
<g clip-path="url(#clip0_19_976)">
<path fill-rule="evenodd" clip-rule="evenodd" d="M21.5 12.5C21.4998 12.3436 21.5486 12.191 21.6394 12.0637C21.7303 11.9364 21.8587 11.8407 22.0066 11.7899C22.1546 11.7392 22.3147 11.7359 22.4646 11.7807C22.6144 11.8254 22.7466 11.9159 22.8425 12.0395L28.0925 18.7895C28.1949 18.9212 28.2505 19.0832 28.2505 19.25C28.2505 19.4168 28.1949 19.5788 28.0925 19.7105L22.8425 26.4605C22.7466 26.5841 22.6144 26.6746 22.4646 26.7193C22.3147 26.7641 22.1546 26.7608 22.0066 26.7101C21.8587 26.6593 21.7303 26.5636 21.6394 26.4363C21.5486 26.309 21.4998 26.1564 21.5 26V23.0075C17.4657 23.0915 15.5277 23.8572 14.5542 24.6897C13.6287 25.481 13.4592 26.4117 13.283 27.3868L13.2372 27.638C13.2036 27.8178 13.1054 27.9791 12.9611 28.0915C12.8169 28.204 12.6365 28.2598 12.4539 28.2486C12.2714 28.2373 12.0992 28.1598 11.9698 28.0305C11.8405 27.9012 11.7628 27.7291 11.7515 27.5465C11.6232 25.4855 11.816 22.499 13.2717 20.0007C14.6847 17.576 17.2295 15.7115 21.5 15.5165V12.5Z" fill="black"/>
</g>
<defs>
<clipPath id="clip0_19_976">
<rect width="18" height="18" fill="white" transform="matrix(-1 0 0 1 29 11)"/>
</clipPath>
</defs>
</svg>
