<svg width="14" height="13" viewBox="0 0 14 13" fill="none" xmlns="http://www.w3.org/2000/svg">
<path d="M7.59002 12.1696C7.47799 12.2742 7.1776 12.4208 6.9687 12.4728C6.87507 12.4961 6.72754 12.5082 6.59089 12.5039C6.3926 12.4976 6.34478 12.486 6.1767 12.4032C5.66452 12.1507 5.19975 11.5548 5.01047 10.9078C4.92678 10.6217 4.92748 9.97549 5.012 9.52647C5.07542 9.18941 5.22745 8.58403 5.30392 8.36394C5.33063 8.28705 5.35251 8.20934 5.35251 8.19125C5.35251 8.16492 4.99095 8.15644 3.53399 8.14862C1.94055 8.14006 1.698 8.13363 1.57426 8.09672C0.619858 7.81205 0.219784 6.79441 0.756926 6.01761L0.866555 5.85906L0.791458 5.77051C0.674089 5.63213 0.567283 5.39185 0.532776 5.18858C0.457006 4.74236 0.670104 4.25357 1.05169 3.99834C1.11778 3.95416 1.17623 3.91456 1.18157 3.91038C1.18692 3.9062 1.17222 3.85563 1.14892 3.79799C1.03026 3.50432 1.04988 3.13266 1.2001 2.82894C1.29741 2.63221 1.50737 2.39782 1.65316 2.32318C1.74063 2.27838 1.74012 2.29171 1.6651 2.03049C1.58524 1.75227 1.63085 1.37361 1.77325 1.133C1.92381 0.878595 2.17353 0.673606 2.46827 0.562448L2.6215 0.504678L5.31368 0.496885C7.06735 0.491812 8.08779 0.498423 8.24088 0.515826C8.81443 0.515826 9.33901 0.889432 9.33901 1.61395V3.74319C9.33901 6.25305 9.33368 6.67999 9.30207 6.70434C9.28175 6.71998 8.90898 7.49793 8.4737 8.43309L7.68228 10.1334V12.0834L7.59002 12.1696Z" fill="#FF1100"/>
<path d="M13.4839 6.24524C13.4839 6.63026 13.1718 6.94239 12.7867 6.94239H10.5851C10.2001 6.94239 9.88793 6.63026 9.88793 6.24524V1.19237C9.88793 0.807345 10.2001 0.495223 10.5851 0.495223H12.7867C13.1718 0.495223 13.4839 0.807344 13.4839 1.19236V6.24524Z" fill="#FF1100"/>
</svg>
