<svg width="21" height="21" viewBox="0 0 21 21" fill="none" xmlns="http://www.w3.org/2000/svg">
<path d="M4.051 2.94202C4.905 2.46402 5.994 2.35202 7.035 2.61602C7.542 2.74402 7.975 3.07302 8.235 3.52602L9.133 5.09202C9.45306 5.65032 9.5455 6.31053 9.39109 6.93526C9.23667 7.55999 8.8473 8.10112 8.304 8.44602L7.514 8.94802C7.187 9.15502 7.067 9.47202 7.142 9.72302C7.41 10.621 8.003 11.617 8.655 12.299C8.849 12.503 9.205 12.551 9.553 12.348L9.99 12.093C10.2767 11.9259 10.5939 11.8175 10.923 11.7742C11.252 11.731 11.5864 11.7536 11.9066 11.841C12.2268 11.9283 12.5264 12.0785 12.788 12.2828C13.0495 12.4871 13.2678 12.7415 13.43 13.031L14.235 14.466C14.498 14.936 14.541 15.497 14.355 16.002C13.984 17.005 13.269 17.814 12.39 18.219C11.497 18.63 10.452 18.613 9.506 17.982C8.008 16.984 6.203 15.304 4.568 12.502C2.912 9.66202 2.495 7.24502 2.542 5.44302C2.572 4.29002 3.182 3.42802 4.051 2.94202ZM13.243 2.56202C13.1271 2.49757 12.9903 2.48181 12.8628 2.51819C12.7353 2.55457 12.6274 2.64012 12.563 2.75602C12.4985 2.87192 12.4828 3.00867 12.5192 3.1362C12.5555 3.26372 12.6411 3.37157 12.757 3.43602L13.141 3.65002C14.3406 4.31642 15.361 5.26337 16.1151 6.40992C16.8691 7.55648 17.3343 8.86856 17.471 10.234L17.503 10.549C17.5068 10.6164 17.5242 10.6824 17.5541 10.7429C17.5841 10.8034 17.626 10.8573 17.6773 10.9011C17.7287 10.945 17.7883 10.978 17.8528 10.9982C17.9172 11.0184 17.9851 11.0253 18.0523 11.0186C18.1195 11.0118 18.1846 10.9915 18.2437 10.9589C18.3028 10.9263 18.3547 10.882 18.3963 10.8288C18.4379 10.7756 18.4682 10.7145 18.4855 10.6492C18.5028 10.5839 18.5067 10.5158 18.497 10.449L18.466 10.135C18.3134 8.60861 17.7935 7.14185 16.9506 5.86014C16.1077 4.57843 14.967 3.51989 13.626 2.77502L13.243 2.56202ZM12.071 5.24202C12.1393 5.12839 12.2499 5.04654 12.3786 5.01448C12.5072 4.98241 12.6433 5.00275 12.757 5.07102L12.881 5.14502C13.6882 5.62897 14.3807 6.28244 14.9106 7.06026C15.4404 7.83808 15.7951 8.72169 15.95 9.65002L15.994 9.91702C16.007 9.98268 16.0066 10.0503 15.993 10.1158C15.9793 10.1813 15.9527 10.2434 15.9146 10.2985C15.8765 10.3535 15.8277 10.4003 15.7712 10.4362C15.7147 10.472 15.6515 10.4961 15.5855 10.5071C15.5195 10.5181 15.4519 10.5157 15.3868 10.5001C15.3218 10.4845 15.2605 10.456 15.2066 10.4162C15.1528 10.3765 15.1074 10.3263 15.0733 10.2688C15.0392 10.2112 15.017 10.1473 15.008 10.081L14.963 9.81502C14.8323 9.02948 14.5325 8.2817 14.0845 7.62336C13.6365 6.96502 13.0508 6.41183 12.368 6.00202L12.244 5.92802C12.1877 5.89428 12.1385 5.84977 12.0994 5.79703C12.0602 5.74429 12.0319 5.68436 12.0159 5.62065C11.9999 5.55695 11.9966 5.49072 12.0063 5.42575C12.0159 5.36079 12.0382 5.29835 12.072 5.24202H12.071Z" fill="white"/>
</svg>
