<svg width="14" height="13" viewBox="0 0 14 13" fill="none" xmlns="http://www.w3.org/2000/svg">
<path d="M6.40998 0.830425C6.52201 0.725803 6.8224 0.579224 7.0313 0.527221C7.12493 0.503923 7.27246 0.491774 7.40911 0.496106C7.6074 0.502359 7.65522 0.513995 7.8233 0.596832C8.33548 0.849263 8.80025 1.44519 8.98953 2.09219C9.07322 2.37828 9.07252 3.02451 8.988 3.47353C8.92458 3.81059 8.77255 4.41597 8.69608 4.63606C8.66937 4.71295 8.64749 4.79066 8.64749 4.80875C8.64749 4.83508 9.00905 4.84356 10.466 4.85138C12.0594 4.85994 12.302 4.86637 12.4257 4.90328C13.3801 5.18795 13.7802 6.20559 13.2431 6.98239L13.1334 7.14094L13.2085 7.22949C13.3259 7.36787 13.4327 7.60815 13.4672 7.81142C13.543 8.25764 13.3299 8.74643 12.9483 9.00166C12.8822 9.04584 12.8238 9.08544 12.8184 9.08962C12.8131 9.0938 12.8278 9.14437 12.8511 9.20201C12.9697 9.49568 12.9501 9.86734 12.7999 10.1711C12.7026 10.3678 12.4926 10.6022 12.3468 10.6768C12.2594 10.7216 12.2599 10.7083 12.3349 10.9695C12.4148 11.2477 12.3692 11.6264 12.2267 11.867C12.0762 12.1214 11.8265 12.3264 11.5317 12.4376L11.3785 12.4953L8.68632 12.5031C6.93265 12.5082 5.91221 12.5016 5.75912 12.4842C5.18557 12.4842 4.66099 12.1106 4.66099 11.386V9.25681C4.66099 6.74695 4.66632 6.32001 4.69793 6.29566C4.71825 6.28002 5.09102 5.50207 5.5263 4.56691L6.31772 2.86661V0.916567L6.40998 0.830425Z" fill="#12E069"/>
<path d="M0.516113 6.75476C0.516113 6.36974 0.828234 6.05761 1.21325 6.05761H3.41493C3.79995 6.05761 4.11207 6.36974 4.11207 6.75476V11.8076C4.11207 12.1927 3.79995 12.5048 3.41493 12.5048H1.21326C0.828235 12.5048 0.516113 12.1927 0.516113 11.8076V6.75476Z" fill="#12E069"/>
</svg>
