<svg width="175" height="56" viewBox="0 0 175 56" fill="none" xmlns="http://www.w3.org/2000/svg">
<path d="M34.9289 47.6696C34.3105 48.0652 33.6703 48.43 33.0106 48.7617C33.6287 49.1964 34.2688 49.602 34.9289 49.9765C35.589 49.602 36.2291 49.1964 36.8472 48.7617C36.1875 48.43 35.5474 48.0652 34.9289 47.6696Z" fill="#3CCDC8"/>
<path fill-rule="evenodd" clip-rule="evenodd" d="M23.3958 51.034C26.8532 51.034 30.1194 50.2155 33.0106 48.7617C33.6287 49.1964 34.2688 49.602 34.9289 49.9765C31.5252 51.9072 27.5893 53.0096 23.3958 53.0096C10.4747 53.0096 0 42.5431 0 29.6321C0 16.721 10.4747 6.25452 23.3958 6.25452C27.5893 6.25452 31.5252 7.35698 34.9289 9.28767C38.3326 7.35698 42.2685 6.25452 46.4621 6.25452C59.3832 6.25452 69.8578 16.721 69.8578 29.6321C69.8578 42.5431 59.3832 53.0096 46.4621 53.0096C42.2685 53.0096 38.3326 51.9072 34.9289 49.9765C35.589 49.602 36.2291 49.1964 36.8472 48.7617C39.7385 50.2155 43.0046 51.034 46.4621 51.034C58.2913 51.034 67.8807 41.4521 67.8807 29.6321C67.8807 17.8121 58.2913 8.23008 46.4621 8.23008C43.0046 8.23008 39.7385 9.04866 36.8472 10.5024C42.8619 14.7329 46.7916 21.7239 46.7916 29.6321C46.7916 37.5402 42.8619 44.5312 36.8472 48.7617C36.1875 48.43 35.5474 48.0652 34.9289 47.6696C35.2946 47.4356 35.6528 47.1909 36.0028 46.9358L26.514 37.4414C28.1749 41.6741 31.1461 45.2496 34.9289 47.6696C34.3105 48.0652 33.6703 48.43 33.0106 48.7617C26.996 44.5312 23.0663 37.5402 23.0663 29.6321C23.0663 21.7239 26.996 14.7329 33.0106 10.5024C30.1194 9.04866 26.8532 8.23008 23.3958 8.23008C11.5666 8.23008 1.97711 17.8121 1.97711 29.6321C1.97711 41.4521 11.5666 51.034 23.3958 51.034ZM25.3975 33.5284L37.5538 45.6919C38.3753 44.9682 39.1409 44.1826 39.8432 43.3424L25.0494 29.1184C25.0454 29.2891 25.0434 29.4604 25.0434 29.6321C25.0434 30.9627 25.1649 32.265 25.3975 33.5284ZM25.2597 26.5789L41.0471 41.7583C41.7153 40.7891 42.3056 39.7621 42.8089 38.6863L26.2486 22.5366C25.7933 23.8316 25.4591 25.1836 25.2597 26.5789ZM27.0557 20.5632C27.558 19.492 28.1464 18.4692 28.8122 17.5037L44.5981 32.6854C44.3995 34.075 44.0673 35.4216 43.6148 36.7118L27.0557 20.5632ZM44.8084 30.1457C44.8124 29.975 44.8145 29.8037 44.8145 29.6321C44.8145 28.0746 44.648 26.5559 44.3318 25.093L44.658 25.4058L46.0271 23.9805L43.0599 21.1348C41.3558 17.2027 38.505 13.8823 34.9289 11.5945C34.5677 11.8256 34.2139 12.0673 33.8679 12.319L43.0599 21.1348C43.6065 22.3959 44.035 23.7199 44.3318 25.093L32.312 13.5652C31.4881 14.2902 30.7204 15.0776 30.0163 15.9198L44.8084 30.1457Z" fill="#3CCDC8"/>
<path d="M44.658 25.4058L46.0271 23.9805L43.0599 21.1348C43.6065 22.3959 44.035 23.7199 44.3318 25.093L44.658 25.4058Z" fill="#3CCDC8"/>
<path d="M85.0851 52.8247C85.0851 53.7384 84.8317 54.4375 84.3249 54.9221C83.8207 55.4041 83.0939 55.6451 82.1446 55.6451H80.5817V50.1103H82.3105C83.1878 50.1103 83.8695 50.3488 84.3558 50.8258C84.842 51.3028 85.0851 51.9691 85.0851 52.8247ZM84.3905 52.8474C84.3905 52.1256 84.2053 51.5817 83.8348 51.2157C83.4669 50.8498 82.9189 50.6668 82.1909 50.6668H81.2377V55.0886H82.0365C82.8186 55.0886 83.4065 54.9006 83.8001 54.5245C84.1937 54.146 84.3905 53.5869 84.3905 52.8474Z" fill="#3CCEC9"/>
<path d="M89.8935 55.6451L89.1911 53.8847H86.9297L86.2351 55.6451H85.5714L87.8019 50.0876H88.3537L90.5727 55.6451H89.8935ZM88.9866 53.3055L88.3306 51.5905C88.2457 51.3735 88.1582 51.1072 88.0682 50.7917C88.0116 51.034 87.9305 51.3003 87.825 51.5905L87.1613 53.3055H88.9866Z" fill="#3CCEC9"/>
<path d="M93.0849 55.6451H92.4288V50.6819H90.6421V50.1103H94.8716V50.6819H93.0849V55.6451Z" fill="#3CCEC9"/>
<path d="M99.2709 55.6451L98.5685 53.8847H96.3072L95.6125 55.6451H94.9488L97.1793 50.0876H97.7311L99.9501 55.6451H99.2709ZM98.364 53.3055L97.708 51.5905C97.6231 51.3735 97.5356 51.1072 97.4456 50.7917C97.389 51.034 97.3079 51.3003 97.2024 51.5905L96.5387 53.3055H98.364Z" fill="#3CCEC9"/>
<path d="M107.282 52.8247C107.282 53.7384 107.029 54.4375 106.522 54.9221C106.018 55.4041 105.291 55.6451 104.342 55.6451H102.779V50.1103H104.508C105.385 50.1103 106.067 50.3488 106.553 50.8258C107.039 51.3028 107.282 51.9691 107.282 52.8247ZM106.588 52.8474C106.588 52.1256 106.402 51.5817 106.032 51.2157C105.664 50.8498 105.116 50.6668 104.388 50.6668H103.435V55.0886H104.234C105.016 55.0886 105.604 54.9006 105.997 54.5245C106.391 54.146 106.588 53.5869 106.588 52.8474Z" fill="#3CCEC9"/>
<path d="M109.2 53.3434V55.6451H108.544V50.1103H110.092C110.784 50.1103 111.294 50.2402 111.624 50.5002C111.955 50.7602 112.121 51.1514 112.121 51.6738C112.121 52.4057 111.743 52.9004 110.987 53.1579L112.519 55.6451H111.743L110.377 53.3434H109.2ZM109.2 52.7906H110.099C110.562 52.7906 110.902 52.701 111.118 52.5218C111.334 52.3401 111.442 52.0688 111.442 51.7079C111.442 51.3419 111.332 51.0782 111.11 50.9166C110.892 50.7551 110.539 50.6744 110.053 50.6744H109.2V52.7906Z" fill="#3CCEC9"/>
<path d="M113.43 55.6451V50.1103H114.086V55.6451H113.43Z" fill="#3CCEC9"/>
<path d="M118.859 50.1103H119.565L117.532 55.6451H116.883L114.861 50.1103H115.556L116.853 53.6917C117.002 54.1031 117.12 54.5031 117.208 54.8918C117.3 54.4829 117.421 54.0753 117.57 53.6689L118.859 50.1103Z" fill="#3CCEC9"/>
<path d="M123.49 55.6451H120.345V50.1103H123.49V50.6819H121.001V52.4651H123.34V53.0329H121.001V55.0697H123.49V55.6451Z" fill="#3CCEC9"/>
<path d="M129.151 55.6451H128.403L125.319 50.9999H125.288C125.33 51.5451 125.35 52.0448 125.35 52.4991V55.6451H124.744V50.1103H125.485L128.561 54.7365H128.592C128.587 54.6684 128.575 54.4501 128.557 54.0816C128.539 53.7106 128.533 53.4456 128.538 53.2866V50.1103H129.151V55.6451Z" fill="#3CCEC9"/>
<path d="M135.939 54.1725C135.939 54.6596 135.759 55.0394 135.399 55.312C135.039 55.5846 134.55 55.7209 133.933 55.7209C133.264 55.7209 132.749 55.6363 132.389 55.4672V54.8463C132.62 54.9422 132.873 55.018 133.145 55.0735C133.418 55.129 133.688 55.1568 133.956 55.1568C134.393 55.1568 134.722 55.076 134.944 54.9145C135.165 54.7504 135.275 54.5233 135.275 54.233C135.275 54.0412 135.236 53.8847 135.156 53.7636C135.079 53.6399 134.947 53.5263 134.762 53.4229C134.58 53.3194 134.3 53.202 133.925 53.0708C133.4 52.8865 133.024 52.6682 132.798 52.4158C132.574 52.1634 132.462 51.8341 132.462 51.4277C132.462 51.0012 132.626 50.6617 132.952 50.4093C133.279 50.157 133.711 50.0308 134.249 50.0308C134.81 50.0308 135.326 50.1317 135.796 50.3336L135.592 50.8939C135.126 50.7021 134.673 50.6062 134.234 50.6062C133.886 50.6062 133.615 50.6794 133.419 50.8258C133.224 50.9722 133.126 51.1753 133.126 51.4353C133.126 51.6271 133.162 51.7849 133.234 51.9085C133.306 52.0297 133.427 52.142 133.597 52.2455C133.769 52.3464 134.032 52.4587 134.384 52.5824C134.976 52.7894 135.382 53.0115 135.604 53.2487C135.827 53.486 135.939 53.7939 135.939 54.1725Z" fill="#3CCEC9"/>
<path d="M141.99 52.8701C141.99 53.756 141.761 54.4526 141.303 54.9599C140.848 55.4672 140.214 55.7209 139.401 55.7209C138.57 55.7209 137.928 55.4723 137.475 54.9751C137.025 54.4753 136.8 53.7712 136.8 52.8626C136.8 51.9615 137.026 51.2637 137.479 50.769C137.932 50.2718 138.575 50.0232 139.409 50.0232C140.219 50.0232 140.852 50.2756 141.307 50.7804C141.763 51.2851 141.99 51.9817 141.99 52.8701ZM137.494 52.8701C137.494 53.6197 137.657 54.1889 137.981 54.5775C138.307 54.9637 138.781 55.1568 139.401 55.1568C140.026 55.1568 140.498 54.9637 140.817 54.5775C141.136 54.1914 141.296 53.6223 141.296 52.8701C141.296 52.1256 141.136 51.5615 140.817 51.1779C140.501 50.7917 140.031 50.5986 139.409 50.5986C138.783 50.5986 138.307 50.793 137.981 51.1817C137.657 51.5678 137.494 52.1306 137.494 52.8701Z" fill="#3CCEC9"/>
<path d="M143.252 55.6451V50.1103H143.908V55.0621H146.397V55.6451H143.252Z" fill="#3CCEC9"/>
<path d="M151.618 50.1103V53.6917C151.618 54.3226 151.424 54.8186 151.036 55.1795C150.647 55.5404 150.113 55.7209 149.434 55.7209C148.755 55.7209 148.229 55.5391 147.856 55.1757C147.485 54.8123 147.3 54.3125 147.3 53.6765V50.1103H147.956V53.7219C147.956 54.1838 148.085 54.5384 148.342 54.7858C148.599 55.0331 148.978 55.1568 149.477 55.1568C149.953 55.1568 150.319 55.0331 150.576 54.7858C150.834 54.5359 150.962 54.1788 150.962 53.7144V50.1103H151.618Z" fill="#3CCEC9"/>
<path d="M154.852 55.6451H154.196V50.6819H152.41V50.1103H156.639V50.6819H154.852V55.6451Z" fill="#3CCEC9"/>
<path d="M157.492 55.6451V50.1103H158.148V55.6451H157.492Z" fill="#3CCEC9"/>
<path d="M164.596 52.8701C164.596 53.756 164.367 54.4526 163.909 54.9599C163.454 55.4672 162.82 55.7209 162.007 55.7209C161.176 55.7209 160.534 55.4723 160.081 54.9751C159.631 54.4753 159.406 53.7712 159.406 52.8626C159.406 51.9615 159.632 51.2637 160.085 50.769C160.538 50.2718 161.181 50.0232 162.015 50.0232C162.825 50.0232 163.458 50.2756 163.913 50.7804C164.369 51.2851 164.596 51.9817 164.596 52.8701ZM160.101 52.8701C160.101 53.6197 160.263 54.1889 160.587 54.5775C160.914 54.9637 161.387 55.1568 162.007 55.1568C162.632 55.1568 163.104 54.9637 163.423 54.5775C163.742 54.1914 163.902 53.6223 163.902 52.8701C163.902 52.1256 163.742 51.5615 163.423 51.1779C163.107 50.7917 162.637 50.5986 162.015 50.5986C161.389 50.5986 160.914 50.793 160.587 51.1817C160.263 51.5678 160.101 52.1306 160.101 52.8701Z" fill="#3CCEC9"/>
<path d="M170.265 55.6451H169.517L166.433 50.9999H166.402C166.443 51.5451 166.464 52.0448 166.464 52.4991V55.6451H165.858V50.1103H166.599L169.675 54.7365H169.706C169.7 54.6684 169.689 54.4501 169.671 54.0816C169.653 53.7106 169.646 53.4456 169.652 53.2866V50.1103H170.265V55.6451Z" fill="#3CCEC9"/>
<path d="M175 54.1725C175 54.6596 174.82 55.0394 174.46 55.312C174.1 55.5846 173.611 55.7209 172.994 55.7209C172.325 55.7209 171.81 55.6363 171.45 55.4672V54.8463C171.681 54.9422 171.934 55.018 172.206 55.0735C172.479 55.129 172.749 55.1568 173.017 55.1568C173.454 55.1568 173.783 55.076 174.005 54.9145C174.226 54.7504 174.336 54.5233 174.336 54.233C174.336 54.0412 174.297 53.8847 174.217 53.7636C174.14 53.6399 174.008 53.5263 173.823 53.4229C173.641 53.3194 173.361 53.202 172.986 53.0708C172.461 52.8865 172.085 52.6682 171.859 52.4158C171.635 52.1634 171.523 51.8341 171.523 51.4277C171.523 51.0012 171.687 50.6617 172.013 50.4093C172.34 50.157 172.772 50.0308 173.31 50.0308C173.871 50.0308 174.387 50.1317 174.857 50.3336L174.653 50.8939C174.187 50.7021 173.734 50.6062 173.295 50.6062C172.947 50.6062 172.676 50.6794 172.48 50.8258C172.285 50.9722 172.187 51.1753 172.187 51.4353C172.187 51.6271 172.223 51.7849 172.295 51.9085C172.367 52.0297 172.488 52.142 172.658 52.2455C172.83 52.3464 173.093 52.4587 173.445 52.5824C174.037 52.7894 174.443 53.0115 174.664 53.2487C174.888 53.486 175 53.7939 175 54.1725Z" fill="#3CCEC9"/>
<path d="M98.1973 5.26674C92.4535 -2.75571 81.0625 5.596 86.9937 13.169C91.8838 18.8267 94.6801 21.9521 99.5155 27.6565C107.814 37.4461 94.6647 49.5335 84.6872 38.1929" stroke="#3CCEC9" stroke-width="3" stroke-linecap="round"/>
<path d="M101.821 3.62048H108.247M114.672 3.62048H108.247M108.247 3.62048V42.4733" stroke="#3CCEC9" stroke-width="3" stroke-linecap="round"/>
<path fill-rule="evenodd" clip-rule="evenodd" d="M131.807 40.6899C141.743 40.6899 149.795 32.6416 149.795 22.7175C149.795 12.7935 141.743 4.7452 131.807 4.7452C121.871 4.7452 113.819 12.7935 113.819 22.7175C113.819 32.6416 121.871 40.6899 131.807 40.6899ZM131.807 43.1317C143.09 43.1317 152.237 33.992 152.237 22.7175C152.237 11.4431 143.09 2.30334 131.807 2.30334C120.524 2.30334 111.377 11.4431 111.377 22.7175C111.377 33.992 120.524 43.1317 131.807 43.1317Z" fill="#3CCEC9"/>
<path d="M154.874 2.96179V42.4731" stroke="#3CCEC9" stroke-width="3" stroke-linecap="round"/>
<path d="M171.423 39.9128C171.816 40.3058 171.819 40.9487 171.383 41.2929C170.303 42.1437 169.03 42.7256 167.669 42.9828C165.977 43.3026 164.228 43.1055 162.65 42.4173C161.072 41.7291 159.738 40.5816 158.822 39.1246C157.906 37.6676 157.451 35.9686 157.516 34.2492C157.58 32.5298 158.162 30.8698 159.185 29.4857C160.208 28.1016 161.625 27.0576 163.25 26.4898C164.876 25.9221 166.635 25.857 168.298 26.3029C169.635 26.6616 170.861 27.3374 171.873 28.2669C172.283 28.6429 172.231 29.2839 171.81 29.6462C171.388 30.0082 170.758 29.9532 170.335 29.5925C169.596 28.9615 168.723 28.4998 167.776 28.2459C166.504 27.9048 165.158 27.9546 163.914 28.3889C162.671 28.8232 161.587 29.6219 160.805 30.6807C160.022 31.7396 159.577 33.0095 159.528 34.3248C159.478 35.6402 159.826 36.9399 160.527 38.0546C161.228 39.1692 162.248 40.047 163.455 40.5735C164.663 41.1 166.001 41.2508 167.295 41.0061C168.259 40.824 169.164 40.4292 169.949 39.8555C170.397 39.5276 171.03 39.5202 171.423 39.9128Z" fill="#3CCEC9"/>
</svg>
