<svg width="12" height="15" viewBox="0 0 12 15" fill="none" xmlns="http://www.w3.org/2000/svg">
<path d="M7.60917 11.3864V13.9773C7.60917 14.0925 7.5651 14.1932 7.47695 14.2796C7.38881 14.3659 7.28597 14.4091 7.16845 14.4091H4.52409C4.40656 14.4091 4.30373 14.3659 4.21558 14.2796C4.12744 14.1932 4.08336 14.0925 4.08336 13.9773V11.3864C4.08336 11.2712 4.12744 11.1705 4.21558 11.0841C4.30373 10.9978 4.40656 10.9546 4.52409 10.9546H7.16845C7.28597 10.9546 7.38881 10.9978 7.47695 11.0841C7.5651 11.1705 7.60917 11.2712 7.60917 11.3864ZM11.0909 4.90912C11.0909 5.29776 11.034 5.66121 10.9201 5.99946C10.8063 6.33772 10.6777 6.61301 10.5345 6.82532C10.3913 7.03763 10.1893 7.25174 9.92849 7.46765C9.66773 7.68356 9.45655 7.84009 9.29495 7.93725C9.13335 8.03441 8.90931 8.16215 8.62284 8.32049C8.32168 8.48602 8.0701 8.71992 7.8681 9.02219C7.6661 9.32446 7.5651 9.56556 7.5651 9.74549C7.5651 9.86784 7.52103 9.98479 7.43288 10.0963C7.34474 10.2079 7.2419 10.2637 7.12437 10.2637H4.48002C4.36984 10.2637 4.27618 10.1971 4.19905 10.064C4.12193 9.93081 4.08336 9.79587 4.08336 9.65912V9.17333C4.08336 8.57598 4.32209 8.01282 4.79954 7.48384C5.277 6.95486 5.8022 6.56443 6.37514 6.31253C6.80852 6.11822 7.11703 5.9167 7.30066 5.70799C7.4843 5.49928 7.57612 5.22579 7.57612 4.88753C7.57612 4.58526 7.40534 4.31897 7.06377 4.08867C6.72221 3.85837 6.32739 3.74322 5.87932 3.74322C5.40187 3.74322 5.00522 3.84757 4.68936 4.05628C4.43227 4.23621 4.03929 4.65003 3.51042 5.29776C3.41493 5.41291 3.30108 5.47049 3.16886 5.47049C3.08071 5.47049 2.98889 5.4417 2.8934 5.38412L1.08643 4.03469C0.990937 3.96272 0.93401 3.87276 0.915647 3.76481C0.897283 3.65685 0.917483 3.55609 0.976246 3.46253C2.15152 1.54814 3.85566 0.590942 6.08867 0.590942C6.6763 0.590942 7.26761 0.702495 7.86259 0.925601C8.45757 1.14871 8.99379 1.44738 9.47124 1.82162C9.94869 2.19587 10.338 2.65467 10.6392 3.19804C10.9403 3.74142 11.0909 4.31178 11.0909 4.90912Z" fill="#443E3E"/>
</svg>
