<svg width="40" height="40" viewBox="0 0 40 40" fill="none" xmlns="http://www.w3.org/2000/svg">
<circle cx="20" cy="20" r="19" stroke="#CCCCCC" stroke-width="2"/>
<path d="M26.75 13.25H27.875V26.75H26.75V13.25ZM13.8125 26.75C13.6633 26.75 13.5202 26.6907 13.4148 26.5852C13.3093 26.4798 13.25 26.3367 13.25 26.1875V13.8125C13.25 13.7137 13.2761 13.6167 13.3255 13.5312C13.375 13.4457 13.4461 13.3747 13.5316 13.3254C13.6172 13.2761 13.7143 13.2502 13.8131 13.2503C13.9118 13.2503 14.0088 13.2765 14.0943 13.3259L24.7818 19.5134C24.8671 19.5629 24.9378 19.6339 24.987 19.7192C25.0362 19.8046 25.0621 19.9015 25.0621 20C25.0621 20.0985 25.0362 20.1954 24.987 20.2808C24.9378 20.3661 24.8671 20.4371 24.7818 20.4866L14.0943 26.6741C14.0087 26.7238 13.9115 26.75 13.8125 26.75Z" fill="#CCCCCC"/>
</svg>
